<svg width="30" height="30" viewBox="0 0 30 30" fill="none" xmlns="http://www.w3.org/2000/svg">
<circle cx="15" cy="15" r="15" fill="#140063"/>
<path d="M19.1797 17.8281C19.1797 18.5052 19.0156 19.0938 18.6875 19.5938C18.3594 20.0938 17.8802 20.4792 17.25 20.75C16.625 21.0208 15.8646 21.1562 14.9688 21.1562C14.5729 21.1562 14.1849 21.1302 13.8047 21.0781C13.4297 21.026 13.0677 20.9505 12.7188 20.8516C12.375 20.7474 12.0469 20.6198 11.7344 20.4688V18.2188C12.276 18.4583 12.8385 18.6745 13.4219 18.8672C14.0052 19.0599 14.5833 19.1562 15.1562 19.1562C15.5521 19.1562 15.8698 19.1042 16.1094 19C16.3542 18.8958 16.5312 18.7526 16.6406 18.5703C16.75 18.388 16.8047 18.1797 16.8047 17.9453C16.8047 17.6589 16.7083 17.4141 16.5156 17.2109C16.3229 17.0078 16.0573 16.8177 15.7188 16.6406C15.3854 16.4635 15.0078 16.2734 14.5859 16.0703C14.3203 15.9453 14.0312 15.7943 13.7188 15.6172C13.4062 15.4349 13.1094 15.2135 12.8281 14.9531C12.5469 14.6927 12.3151 14.3776 12.1328 14.0078C11.9557 13.6328 11.8672 13.1849 11.8672 12.6641C11.8672 11.9818 12.0234 11.3984 12.3359 10.9141C12.6484 10.4297 13.0938 10.0599 13.6719 9.80469C14.2552 9.54427 14.9427 9.41406 15.7344 9.41406C16.3281 9.41406 16.8932 9.48438 17.4297 9.625C17.9714 9.76042 18.5365 9.95833 19.125 10.2188L18.3438 12.1016C17.8177 11.888 17.3464 11.724 16.9297 11.6094C16.513 11.4896 16.0885 11.4297 15.6562 11.4297C15.3542 11.4297 15.0964 11.4792 14.8828 11.5781C14.6693 11.6719 14.5078 11.8073 14.3984 11.9844C14.2891 12.1562 14.2344 12.3568 14.2344 12.5859C14.2344 12.8568 14.3125 13.0859 14.4688 13.2734C14.6302 13.4557 14.8698 13.6328 15.1875 13.8047C15.5104 13.9766 15.9115 14.1771 16.3906 14.4062C16.974 14.6823 17.4714 14.9714 17.8828 15.2734C18.2995 15.5703 18.6198 15.9219 18.8438 16.3281C19.0677 16.7292 19.1797 17.2292 19.1797 17.8281Z" fill="#E3FF3B"/>
</svg>
